<?xml version="1.0" standalone="no"?><!DOCTYPE svg PUBLIC "-//W3C//DTD SVG 1.1//EN" "http://www.w3.org/Graphics/SVG/1.1/DTD/svg11.dtd"><svg t="1682242618505" class="icon" viewBox="0 0 1024 1024" version="1.1" xmlns="http://www.w3.org/2000/svg" p-id="2055" xmlns:xlink="http://www.w3.org/1999/xlink" width="200" height="200" fill="red" stroke="black"><path d="M512 212c-165.7 0-300 134.3-300 300s134.3 300 300 300 300-134.3 300-300-134.3-300-300-300z m-105.1 51.2C440.2 249.1 475.5 242 512 242s71.8 7.1 105.1 21.2c32.1 13.6 61 33.1 85.8 57.9 23.5 23.5 42.3 50.8 55.8 80.9H512c-52.1 0-95.6 36.1-107.1 84.6l-91.2-157.9c2.4-2.6 4.8-5.1 7.3-7.6 24.9-24.8 53.8-44.3 85.9-57.9z m172.2 292.2c-0.6 0.7-1.1 1.4-1.5 2.2l-0.3 0.5C562.8 578.6 538.9 592 512 592c-44.1 0-80-35.9-80-80s35.9-80 80-80 80 35.9 80 80c0 16-4.7 30.9-12.9 43.4z m-258 147.5c-24.8-24.8-44.3-53.7-57.9-85.8C249.1 583.8 242 548.5 242 512s7.1-71.8 21.2-105.1c8-19 18.2-36.9 30.2-53.4l121.4 210.2h0.1c18.5 34.7 55 58.3 97.1 58.3 10.8 0 21.1-1.5 31-4.4l-91.1 157.7c-15.3-3.5-30.4-8.3-45-14.5-32.1-13.6-61-33.1-85.8-57.9z m439.7-85.8c-13.6 32.1-33.1 61-57.9 85.8-24.8 24.8-53.7 44.3-85.8 57.9C583.8 774.9 548.5 782 512 782c-9.6 0-19.1-0.5-28.5-1.5L602.2 575c12.5-17.8 19.8-39.6 19.8-63 0-31.5-13.2-60-34.5-80H770c8 25.8 12 52.5 12 80 0 36.5-7.1 71.8-21.2 105.1z" fill="#333333" p-id="2056"></path></svg>